► Saishu Heiki Kanojo (Saikano) ◄


Sinopsis:
Esta historia se desarrolla a inicios de la Tercera Guerra Mundial, en una ciudad pacífica de Japón llamada Hokkaido. La historia muestra la vida de dos estudiantes del tercer año de una preparatoria en Hokkaido, Shuji y Chise. Chise es una chica tranquila, tímida y algo torpe, que declara su amor a Shuji, un típico estudiante con grandes rasgos atléticos para su edad, el cual no es muy bueno manejando este tipo de relaciones. Al principio existen dificultades para sobresalir como pareja, ya que ambos no saben expresar muy claramente sus sentimientos.


→ Titulo: Saishu Heiki Kanojo (最終兵器彼女)
→ Categoria: Serie
→ Genero: Drama, Romance, Ciencia Ficcion.
→ Estudio: Gonzo
→ Episodios: 13
→ Ovas: 2
→ Año: 2002
→ Fansub: Athena no Seinto
→ Idioma: Japones
→ Subtitulos: Español
→ Formato: MP4
→ Resolución: 848x480
→ Duración: 24 Min (c/u)
→ Aspecto: 16:9
→ Peso Aprox: 70 Mb
→ Servidor: P2P





►General
 Format                                   : MPEG-4
 Format profile                           : Base Media
 Codec ID                                 : isom
 File size                                : 69.6 MiB
 Duration                                 : 24mn 15s
 Overall bit rate mode                    : Variable
 Overall bit rate                         : 401 Kbps



 ▼Video
  ID                                       : 1
  Format                                   : AVC
  Format/Info                              : Advanced Video Codec
  Format profile                           : High@L4.1
  Format settings, CABAC                   : Yes
  Format settings, ReFrames                : 3 frames
  Codec ID                                 : avc1
  Codec ID/Info                            : Advanced Video Coding
  Duration                                 : 24mn 15s
  Bit rate                                 : 368 Kbps
  Maximum bit rate                         : 2 350 Kbps
  Width                                    : 848 pixels
  Height                                   : 480 pixels
  Display aspect ratio                     : 16:9
  Original display aspect ratio            : 16:9
  Frame rate mode                          : Constant
  Frame rate                               : 23.976 fps
  Color space                              : YUV
  Chroma subsampling                       : 4:2:0
  Bit depth                                : 8 bits
  Scan type                                : Progressive
  Bits/(Pixel*Frame)                       : 0.038
  Stream size                              : 63.8 MiB (92%)
  Title                                    : Imported with GPAC 0.4.6-DEV
  Writing library                          : x264 core 114 r1900 60ef1f8



  ▼Audio
  ID                                       : 2
  Format                                   : AAC
  Format/Info                              : Advanced Audio Codec
  Format profile                           : HE-AAC / LC
  Codec ID                                 : 40
  Duration                                 : 24mn 15s
  Bit rate mode                            : Variable
  Bit rate                                 : 30.0 Kbps
  Maximum bit rate                         : 44.7 Kbps
  Channel(s)                               : 2 channels
  Channel positions                        : Front: L R
  Sampling rate                            : 48.0 KHz / 24.0 KHz
  Compression mode                         : Lossy
  Stream size                              : 5.20 MiB (7%)



>===========► ENJOY!!	
